<?xml version="1.0" encoding="utf-8"?>
<!-- Svg Vector Icons : http://www.onlinewebfonts.com/icon -->
<!DOCTYPE svg PUBLIC "-//W3C//DTD SVG 1.1//EN" "http://www.w3.org/Graphics/SVG/1.1/DTD/svg11.dtd">
<svg version="1.1" xmlns="http://www.w3.org/2000/svg" xmlns:xlink="http://www.w3.org/1999/xlink" x="0px" y="0px" viewBox="0 0 1000 1000" enable-background="new 0 0 1000 1000" xml:space="preserve">
<metadata> Svg Vector Icons : http://www.onlinewebfonts.com/icon </metadata>
<g><path d="M379.1,8.7v245.4h122.6v121.3l-368.2-0.5v124.6H11L11,8.7H379.1z M314.4,52.1H67.8v243.6h246.6L314.4,52.1z"/><path d="M126.8,120.6H250v120.7H126.8L126.8,120.6L126.8,120.6z"/><path d="M744.2,129h125.1v120.7H744.2V129z"/><path d="M990,9.7v365.8H869.3v123.9H744.2V375.6H621.4v-253H501.7V8.7L990,9.7z M928.5,59.3H685.1v243.4h243.4L928.5,59.3z"/><path d="M501.7,375.4v124.1h119.7V375.6L501.7,375.4z"/><path d="M376.3,499.5v491.8l-366.3,0V620.6h246.4V499.5H376.3z M311.7,689.7H65.1v243.6h246.6V689.7z"/><path d="M621.4,499.5v119.2H501.7v126.7h238.5l-0.4,245.9H990V865.7H869.3V745.4H990V499.5H869.3l0.1,121.2H743.9l0.4-121.2H621.4z"/><path d="M131.6,745.4h123.2V866H131.6V745.4z"/><path d="M501,870.6h123.2v120.7H501V870.6z"/></g>
</svg>