<?xml version="1.0" encoding="UTF-8"?>
<svg version="1.1" xmlns="http://www.w3.org/2000/svg" xmlns:xlink="http://www.w3.org/1999/xlink" x="0px" y="0px" viewBox="0 0 273.1 197.1" style="enable-background:new 0 0 273.1 197.1;" xml:space="preserve">
<path d="M188,128.2v-24c6.5,4.2,13.6,7,21.2,8.4v72c0,3.6-1.2,6.6-3.7,9c-2.5,2.4-5.4,3.6-8.9,3.6H12.6c-3.4,0-6.4-1.2-8.9-3.6  c-2.5-2.4-3.7-5.4-3.7-9V38.7c0-3.6,1.2-6.6,3.7-9c2.5-2.4,5.4-3.6,8.9-3.6h153.1c-3.4,6.8-5.4,13.9-5.8,21.2H33.8  c-3.6,0-6.6,1.2-9,3.7s-3.6,5.4-3.6,8.9v54.1c0,3.4,1.1,5.7,3.1,6.9c2.1,1.2,4.6,0.9,7.6-0.8l24.2-14.2c3.1-1.7,6.8-2.6,11-2.7  s7.8,0.7,11,2.4l37.5,20.3c3.1,1.6,6.8,2.3,11,2.2c4.2-0.1,7.8-1,11-2.7l2.3-1.4c2.9-1.7,6.5-2.6,10.7-2.6s7.8,0.9,10.7,2.8  l16.1,9.8c2.9,1.9,5.5,2.2,7.6,1.1C187,133.9,188,131.6,188,128.2z M160.8,92.4c-3.3,3.3-7.2,5-11.9,5c-4.7,0-8.6-1.7-11.9-5  c-3.3-3.3-4.9-7.3-4.9-12c0-4.7,1.6-8.6,4.9-11.9c3.3-3.3,7.2-4.9,11.9-4.9c4.7,0,8.6,1.6,11.9,4.9c3.3,3.3,4.9,7.2,4.9,11.9  C165.7,85,164,89,160.8,92.4z M220.4,0c14.6,0,27,5.1,37.3,15.4c10.2,10.2,15.4,22.7,15.4,37.3s-5.1,27-15.4,37.3  c-10.2,10.3-22.7,15.4-37.3,15.4c-14.4,0-26.8-5.1-37.2-15.4c-10.3-10.2-15.5-22.7-15.5-37.3s5.2-27,15.5-37.3  C193.6,5.1,206,0,220.4,0z M193.4,79.7c7.5,7.5,16.5,11.2,27,11.2s19.6-3.7,27-11.2c7.5-7.5,11.2-16.5,11.2-27s-3.7-19.6-11.2-27  c-7.5-7.5-16.5-11.2-27-11.2s-19.6,3.7-27,11.2c-7.5,7.5-11.2,16.5-11.2,27S185.9,72.2,193.4,79.7z M227.7,45.4h14.4  c1.2,0,2.3,0.5,3.3,1.4c0.9,0.9,1.4,2.1,1.4,3.5V55c0,1.2-0.5,2.4-1.4,3.4c-0.9,1-2,1.5-3.3,1.5h-14.4v14.2c0,1.2-0.5,2.4-1.4,3.4  c-0.9,1-2.1,1.5-3.5,1.5h-4.7c-1.2,0-2.4-0.5-3.4-1.5c-1-1-1.5-2.1-1.5-3.4V59.9H199c-1.2,0-2.4-0.5-3.4-1.5c-1-1-1.5-2.1-1.5-3.4  v-4.7c0-1.4,0.5-2.6,1.5-3.5c1-0.9,2.1-1.4,3.4-1.4h14.2V31c0-1.2,0.5-2.3,1.5-3.3c1-0.9,2.1-1.4,3.4-1.4h4.7c1.4,0,2.6,0.5,3.5,1.4  c0.9,0.9,1.4,2,1.4,3.3V45.4z"/>
</svg>